<svg width="38" height="38" viewBox="0 0 38 38" fill="none" xmlns="http://www.w3.org/2000/svg"><path d="M19 38C21.6125 38 23.75 36.2462 23.75 34.1026H14.25C14.25 36.2462 16.3875 38 19 38ZM33.25 26.3077V16.5641C33.25 10.5815 29.3787 5.57333 22.5625 4.2482V2.92308C22.5625 1.30564 20.9713 0 19 0C17.0287 0 15.4375 1.30564 15.4375 2.92308V4.2482C8.645 5.57333 4.75 10.5621 4.75 16.5641V26.3077L0 30.2051V32.1538H38V30.2051L33.25 26.3077ZM28.5 28.2564H9.5V16.5641C9.5 11.7313 13.0863 7.79487 19 7.79487C24.9137 7.79487 28.5 11.7313 28.5 16.5641V28.2564Z" fill="#5B5B5B"/></svg>
